<svg xmlns="http://www.w3.org/2000/svg" width="769.103" height="768.484" viewBox="0 0 769.103 768.484">
  <g id="Group_110" data-name="Group 110" transform="translate(11912.966 -12912.614)">
    <g id="Group_109" data-name="Group 109" transform="translate(-11674.907 12879.06)">
      <path id="Subtraction_1" data-name="Subtraction 1" d="M12358.682-12193.224c-27.943,0-58.763,0-103.052,0h-190.581c-83.768,0-194.229,0-305.808-.033-19.956-.006-38.242-6.071-52.882-17.541s-24.816-27.681-29.466-46.916a83.579,83.579,0,0,1-1.988-19.837c.014-71.321.016-143.949.018-214.185v-16.631c0-93.786,0-190.766.031-286.132a92.091,92.091,0,0,1,3.854-26.788,80,80,0,0,1,11.132-22.889,79.611,79.611,0,0,1,17.787-18.127,90.923,90.923,0,0,1,23.82-12.508,62.615,62.615,0,0,1,21-3.959l10.013,0c17.667,0,35.645.025,53.031.05l2.01,0,1.028,0,20.885.028c.05.057.1.113.15.169l.015.017c.132.15.287.326.443.5a13.635,13.635,0,0,1,.855,6.355v.057c-.013.48-.025.977-.024,1.462.021,26.123.04,60.636-.006,95.94a42.33,42.33,0,0,0,1.888,13.291,24.152,24.152,0,0,0,3.606,6.953,26.1,26.1,0,0,0,5.555,5.5,26.407,26.407,0,0,0,6.943,3.648,24.831,24.831,0,0,0,7.776,1.384c.107,0,.216,0,.323,0a25.878,25.878,0,0,0,24.064-17.492,42.464,42.464,0,0,0,1.885-13.291c-.04-27.812-.042-57.4-.007-95.94,0-.49-.012-.991-.024-1.477v-.056a13.662,13.662,0,0,1,.847-6.345c.179-.2.375-.418.617-.68.468-.023.951-.056,1.378-.083,1.012-.065,2.059-.133,3.1-.133,50.269-.007,104.124-.01,160.072-.01s109.806,0,160.075.01c1.037,0,2.084.067,3.1.133.427.027.91.06,1.378.083.19.216.395.445.607.683a13.631,13.631,0,0,1,.855,6.353c-.012.47-.025,1-.024,1.521.021,26.545.039,61.438-.007,95.94a42.356,42.356,0,0,0,1.888,13.291,24.178,24.178,0,0,0,3.606,6.953,26.059,26.059,0,0,0,5.556,5.506,26.334,26.334,0,0,0,6.943,3.648,24.753,24.753,0,0,0,7.775,1.383c.107,0,.217,0,.323,0a25.878,25.878,0,0,0,24.065-17.492,42.428,42.428,0,0,0,1.884-13.291c-.046-35.347-.027-69.84-.006-95.94,0-.489-.012-.989-.023-1.473l0-.061a13.671,13.671,0,0,1,.846-6.344c.2-.227.405-.449.618-.68h.045c9.211,0,18.567-.094,27.615-.185s18.433-.185,27.659-.185c13.56,0,24.726.2,35.139.638a68.105,68.105,0,0,1,23.684,5.456,81.243,81.243,0,0,1,21.018,13.055,85.54,85.54,0,0,1,16.438,18.731,76.421,76.421,0,0,1,9.949,22.492,97.215,97.215,0,0,1,2.3,12.251,102.943,102.943,0,0,1,.744,12.438c-.008,67.091-.009,135.452-.01,201.563v20.893c0,104.173,0,198.159-.02,293.493a92.624,92.624,0,0,1-3.983,27.271,81.107,81.107,0,0,1-11.443,23.274,79.483,79.483,0,0,1-18.162,18.253,87.926,87.926,0,0,1-24.141,12.212A84.183,84.183,0,0,1,12358.682-12193.224Zm-622.507-438.979c-2.715,0-4.2.373-5.107,1.288s-1.289,2.421-1.282,5.057c.136,63.645.128,128.175.12,190.581q0,22.458,0,44.914,0,14.714,0,29.429v3.287c0,25.666,0,52.205-.012,78.28a45.42,45.42,0,0,0,1.031,10.6,24.813,24.813,0,0,0,4.535,9.661c5.862,7.581,13.855,10.961,25.917,10.961h.1c41.272-.059,81.5-.066,111.936-.066,17.586,0,35.465,0,52.756.006h.022c15.414,0,34.6.006,52.779.006h142.972c71.2,0,151.906,0,233.52-.007h.478c5.551,0,11.29,0,16.6-2.748,10.628-5.5,15.571-14.7,15.557-28.923-.092-88.706-.084-178.914-.076-266.152v-19.055c0-19.951,0-40.248,0-60.285,0-6.717,0-6.717-6.824-6.717-107.331,0-216.458,0-321.992,0l-54.768,0h-17.6l-37.162,0c-67.368,0-139.855-.014-213.46-.115Z" transform="translate(-11912.463 12994.763)" fill="#ff6969" stroke="rgba(0,0,0,0)" stroke-miterlimit="10" stroke-width="1"/>
      <path id="Path_17" data-name="Path 17" d="M-72.953,116.072c.017-18-.123-36,.1-53.993.2-16.2,11.062-27.843,26.106-28.5,14.755-.642,27.762,10.257,28.292,25.01.687,19.14.322,38.318.41,57.48l.119-.127c-1.915,1.7-4.282,1.65-6.611,1.656q-20.961.048-41.922,0c-2.329-.006-4.7.047-6.611-1.656Z" fill="#ff6969"/>
      <path id="Path_18" data-name="Path 18" d="M311.047,116.072c.017-18-.123-36,.1-53.993.2-16.2,11.062-27.843,26.106-28.5,14.755-.642,27.762,10.257,28.292,25.01.687,19.14.322,38.318.41,57.48l.119-.127c-1.915,1.7-4.282,1.65-6.611,1.656q-20.961.048-41.922,0c-2.329-.006-4.7.047-6.611-1.656Z" fill="#ff6969"/>
      <path id="Path_22" data-name="Path 22" d="M338.49,442.338c-.163,11.56-4.208,18.3-10.228,24.3q-61.209,61.038-122.277,122.217-46.64,46.635-93.3,93.252c-10.133,10.109-21.7,12.4-33.168,6.824a32.829,32.829,0,0,1-8.752-6.549Q17.214,628.863-36.266,575.271c-13.286-13.367-12.025-32.562,2.4-42.954,11.3-8.143,25.33-6.723,36.268,4.023,13.537,13.3,26.871,26.808,40.29,40.228C57.758,591.636,72.932,606.6,87.8,621.859c3.205,3.288,4.807,2.866,7.8-.14Q192.278,524.778,289.111,428c8.372-8.387,17.725-12.641,29.681-9.217C330.4,422.1,338.575,432.981,338.49,442.338Z" fill="#ff6969"/>
    </g>
  </g>
</svg>
