<?xml version="1.0" encoding="iso-8859-1"?>
<!-- Generator: Adobe Illustrator 19.0.0, SVG Export Plug-In . SVG Version: 6.00 Build 0)  -->
<svg version="1.1" id="Capa_1" xmlns="http://www.w3.org/2000/svg" xmlns:xlink="http://www.w3.org/1999/xlink" x="0px" y="0px"
	 viewBox="0 0 512 512" style="enable-background:new 0 0 512 512;" xml:space="preserve">
<path style="fill:#78D2FA;" d="M10,428v14c0,22.091,17.909,40,40,40h412c22.091,0,40-17.909,40-40v-14H10z"/>
<path style="fill:#F0F0FA;" d="M71,124.012h-4c-22.091,0-40,17.909-40,40v262.421c0,0.872,0.707,1.579,1.579,1.579h454.842
	c0.872,0,1.579-0.707,1.579-1.579V164.012c0-22.091-17.909-40-40-40h-5.833C439.167,124.012,71,124.012,71,124.012z"/>
<path style="fill:#FFFFFF;" d="M74,342V62c0-17.673,14.327-32,32-32h300c17.673,0,32,14.327,32,32v280c0,17.673-14.327,32-32,32H106
	C88.327,374,74,359.673,74,342z"/>
<path style="fill:#FF5A5A;" d="M438,62c0-17.673-14.327-32-32-32H106c-17.673,0-32,14.327-32,32v40h364V62z"/>
<path style="fill:#231F20;" d="M82.141,102h351.832"/>
<path d="M197.13,325c-2.63,0-5.21,1.07-7.07,2.93c-1.859,1.86-2.93,4.44-2.93,7.07s1.07,5.21,2.93,7.07
	c1.86,1.86,4.44,2.93,7.07,2.93s5.21-1.07,7.07-2.93c1.859-1.86,2.93-4.44,2.93-7.07s-1.07-5.21-2.93-7.07
	C202.34,326.07,199.76,325,197.13,325z"/>
<path d="M502,418h-7v-67c0-5.523-4.478-10-10-10s-10,4.477-10,10v67H37V164.012c0-15.529,11.861-28.34,27-29.85V342
	c0,23.159,18.841,42,42,42h300c23.159,0,42-18.841,42-42V134.163c15.139,1.51,27,14.32,27,29.85V273c0,5.523,4.478,10,10,10
	s10-4.477,10-10V164.012c0-26.562-20.822-48.344-47-49.902V62c0-23.159-18.841-42-42-42H106c-23.159,0-42,18.841-42,42v52.11
	c-26.178,1.558-47,23.34-47,49.902V418h-7c-5.522,0-10,4.477-10,10v14c0,27.57,22.43,50,50,50h412c27.57,0,50-22.43,50-50v-14
	C512,422.477,507.522,418,502,418z M406,364H106c-11.113,0-20.322-8.284-21.79-19h75.818c5.522,0,10-4.477,10-10s-4.478-10-10-10H84
	V112h344v230C428,354.131,418.131,364,406,364z M106,40h300c12.131,0,22,9.869,22,22v30H84V62C84,49.869,93.869,40,106,40z M492,442
	c0,16.542-13.458,30-30,30H50c-16.542,0-30-13.458-30-30v-4h6.758c0.081,0.002,0.16,0.012,0.242,0.012h458
	c0.082,0,0.161-0.01,0.242-0.012H492V442z"/>
<path d="M274,445h-36.083c-5.522,0-10,4.477-10,10s4.478,10,10,10H274c5.522,0,10-4.477,10-10S279.522,445,274,445z"/>
<path d="M485,302c-2.63,0-5.21,1.07-7.07,2.93c-1.86,1.86-2.93,4.44-2.93,7.07s1.069,5.21,2.93,7.07S482.37,322,485,322
	s5.21-1.07,7.069-2.93c1.86-1.86,2.931-4.44,2.931-7.07s-1.07-5.21-2.931-7.07C490.21,303.07,487.63,302,485,302z"/>
<path d="M230.894,76h167.155c5.522,0,10-4.477,10-10s-4.478-10-10-10H230.894c-5.522,0-10,4.477-10,10S225.371,76,230.894,76z"/>
<path d="M143.54,76c2.64,0,5.22-1.07,7.08-2.93c1.859-1.86,2.92-4.44,2.92-7.07c0-2.63-1.061-5.21-2.92-7.07
	c-1.86-1.86-4.44-2.93-7.08-2.93c-2.63,0-5.2,1.07-7.07,2.93c-1.86,1.86-2.93,4.44-2.93,7.07c0,2.63,1.069,5.21,2.93,7.07
	C138.34,74.93,140.91,76,143.54,76z"/>
<path d="M113.95,76c2.63,0,5.21-1.07,7.069-2.93c1.86-1.86,2.931-4.44,2.931-7.07c0-2.63-1.07-5.21-2.931-7.07
	C119.16,57.07,116.58,56,113.95,56c-2.631,0-5.21,1.07-7.07,2.93s-2.93,4.44-2.93,7.07c0,2.63,1.069,5.21,2.93,7.07
	S111.319,76,113.95,76z"/>
<path d="M173.14,76c2.63,0,5.21-1.07,7.07-2.93c1.859-1.86,2.93-4.44,2.93-7.07c0-2.63-1.07-5.21-2.93-7.07
	c-1.86-1.86-4.44-2.93-7.07-2.93s-5.21,1.07-7.07,2.93c-1.859,1.86-2.93,4.43-2.93,7.07c0,2.63,1.07,5.21,2.93,7.07
	C167.93,74.93,170.51,76,173.14,76z"/>
<path d="M175,236.426c-5.522,0-10,4.477-10,10V263h-23.383l18.325-47.849c1.975-5.158-0.604-10.94-5.763-12.915
	c-5.156-1.974-10.939,0.604-12.915,5.762l-23.524,61.425c-1.177,3.075-0.766,6.532,1.1,9.244c1.866,2.712,4.947,4.333,8.239,4.333
	H165v16.574c0,5.523,4.478,10,10,10s10-4.477,10-10v-53.148C185,240.903,180.522,236.426,175,236.426z"/>
<path d="M384,236.426c-5.522,0-10,4.477-10,10V263h-23.383l18.325-47.849c1.975-5.158-0.604-10.94-5.763-12.915
	c-5.155-1.974-10.938,0.604-12.915,5.762l-23.524,61.425c-1.177,3.075-0.766,6.532,1.1,9.244c1.866,2.712,4.947,4.333,8.239,4.333
	H374v16.574c0,5.523,4.478,10,10,10s10-4.477,10-10v-53.148C394,240.903,389.522,236.426,384,236.426z"/>
<path d="M253.719,201.574c-29.775,0-54,24.224-54,54s24.225,54,54,54s54-24.224,54-54S283.494,201.574,253.719,201.574z
	 M253.719,289.574c-18.748,0-34-15.252-34-34s15.252-34,34-34s34,15.252,34,34S272.467,289.574,253.719,289.574z"/>
<path d="M253.722,182.76c5.522,0,10-4.477,10-10V137c0-5.523-4.478-10-10-10s-10,4.477-10,10v35.76
	C243.722,178.283,248.199,182.76,253.722,182.76z"/>
<path d="M205.128,189.406c1.953,1.953,4.512,2.929,7.071,2.929s5.118-0.977,7.071-2.929c3.905-3.905,3.905-10.237,0-14.142
	l-21.381-21.381c-3.904-3.905-10.234-3.905-14.143,0c-3.905,3.905-3.905,10.237,0,14.142L205.128,189.406z"/>
<path d="M323.691,153.896c-3.905-3.905-10.235-3.905-14.143,0l-21.382,21.381c-3.905,3.905-3.905,10.237,0,14.142
	c1.953,1.953,4.512,2.929,7.071,2.929c2.559,0,5.118-0.977,7.071-2.929l21.382-21.381
	C327.597,164.133,327.597,157.802,323.691,153.896z"/>
<g>
</g>
<g>
</g>
<g>
</g>
<g>
</g>
<g>
</g>
<g>
</g>
<g>
</g>
<g>
</g>
<g>
</g>
<g>
</g>
<g>
</g>
<g>
</g>
<g>
</g>
<g>
</g>
<g>
</g>
</svg>
