<svg xmlns="http://www.w3.org/2000/svg" width="409.636" height="374.433" viewBox="0 0 409.636 374.433">
  <g id="Group_5996" data-name="Group 5996" transform="translate(-170.8 -257.8)">
    <path id="Path_1823" data-name="Path 1823" d="M363.647,258.462a186.555,186.555,0,0,1,155.488,92.73c3.487,5.96,1.865,12.912-3.6,16.349a11.755,11.755,0,0,1-16.6-4.076,176.106,176.106,0,0,0-27.722-35.311C449,306.681,422.876,292.348,392.7,285.871c-45.245-9.711-87.546-1.734-125.81,24.062-36.843,24.839-60.049,59.524-68.879,103.266-8.926,44.222-.3,85.309,24.563,122.65,20.324,30.522,48.369,51.655,83.154,63.558a157.622,157.622,0,0,0,61.4,8.253q52.308-3.241,93.044-35.963a160.532,160.532,0,0,0,37.662-43.465c2.1-3.51,4.551-6.525,8.9-7.238,5.02-.823,9.311.476,12.191,4.8,2.9,4.355,2.762,8.8.041,13.39a190.2,190.2,0,0,1-29.714,38.291c-26.355,26.126-57.834,42.79-94.018,50.512a155.059,155.059,0,0,1-31.589,3.585l-13.661,0a156.927,156.927,0,0,1-29.564-3.483c-47.616-10.3-86.1-34.915-114.648-74.529a182.123,182.123,0,0,1-33.589-87.225c-.444-3.892.27-7.965-1.385-11.715v-19.2c.939-.823.69-1.965.724-2.986a152.982,152.982,0,0,1,4.013-28.237c9.258-41.339,30.275-75.636,62.681-102.693,32.27-26.944,69.725-41.121,111.768-43.035Z" fill="#000"/>
    <path id="Path_1826" data-name="Path 1826" d="M580.436,447.417c-1.719,4.3-4.885,7.232-8.636,9.837-12.844,8.917-25.561,18.017-38.342,27.024-7.313,5.153-15.094,4.2-18.97-2.28a15.974,15.974,0,0,1-1.836-8.395q-.067-28.582,0-57.164c.036-9.745,5.366-14.845,14.1-13.859,2.634.3,4.666,1.787,6.682,3.2,13.463,9.421,26.838,18.967,40.308,28.378a19.933,19.933,0,0,1,6.694,8.461Z" fill="#000"/>
    <path id="Path_1827" data-name="Path 1827" d="M349.986,258.464q.014-.333.03-.664h13.6c.013.221.023.441.03.662Z" fill="#000"/>
    <path id="Path_1828" data-name="Path 1828" d="M350.016,632.233q-.016-.333-.03-.664l13.661,0c-.007.221-.017.441-.03.662Z" fill="#000"/>
    <path id="Path_1829" data-name="Path 1829" d="M394.036,457.017q-45.189,0-90.376-.012c-9.086-.01-14.731-6.634-12.874-14.943,1.137-5.089,5.861-8.767,11.691-9.031,1.862-.085,3.731-.016,5.6-.016q88.178,0,176.354-.083c3.331-.007,4.278.76,4.087,4.1.037,16.426-.025.029,0,16.358.154,3.031-.739,3.715-3.7,3.7C454.553,456.97,424.294,457.017,394.036,457.017Z" fill="#000"/>
  </g>
</svg>
