<svg xmlns="http://www.w3.org/2000/svg" width="24" height="24" viewBox="0 0 24 24">
  <g id="Group_11380" data-name="Group 11380" transform="translate(-7207 16750)">
    <g id="calendar_today-24px" transform="translate(7207 -16750)">
      <path id="Path_34230" data-name="Path 34230" d="M0,0H24V24H0Z" fill="none"/>
      <path id="Path_34231" data-name="Path 34231" d="M20,3H19V1H17V3H7V1H5V3H4A2.006,2.006,0,0,0,2,5V21a2.006,2.006,0,0,0,2,2H20a2.006,2.006,0,0,0,2-2V5A2.006,2.006,0,0,0,20,3Zm0,18H4V10H20ZM20,8H4V5H20Z" fill="#fff"/>
    </g>
  </g>
</svg>
