<?xml version="1.0"?>
<svg xmlns="http://www.w3.org/2000/svg" xmlns:xlink="http://www.w3.org/1999/xlink" xmlns:svgjs="http://svgjs.com/svgjs" version="1.1" width="512" height="512" x="0" y="0" viewBox="0 0 512 512" style="enable-background:new 0 0 512 512" xml:space="preserve" class=""><g>
<g xmlns="http://www.w3.org/2000/svg">
	<g>
		<path d="M256,0C148.48,0,61,89.48,61,197c0,105.404,0,74.791,0,180c0,24.814,20.186,45,45,45c24.814,0,45-20.186,45-45V227    c0-24.814-20.186-45-45-45c-5.054,0-9.831,1.024-14.37,2.567C98.028,99.388,169.215,30,256,30s157.972,69.388,164.37,154.567    C415.831,183.024,411.054,182,406,182c-24.814,0-45,20.186-45,45v150c0,19.53,12.578,36.024,30,42.237V437c0,8.276-6.724,15-15,15    h-77.763c-6.213-17.422-22.707-30-42.237-30c-24.814,0-45,20.186-45,45c0,24.814,20.186,45,45,45c19.53,0,36.024-12.578,42.237-30    H376c24.814,0,45-20.186,45-45v-17.763c17.422-6.213,30-22.707,30-42.237c0-105.209,0-74.597,0-180C451,89.48,363.52,0,256,0z" fill="#ffffff" data-original="#000000" style="" class=""/>
	</g>
</g>
<g xmlns="http://www.w3.org/2000/svg">
	<g>
		<path d="M0,257v90c0,19.53,13.578,36.024,31,42.237V214.763C13.578,220.976,0,237.47,0,257z" fill="#ffffff" data-original="#000000" style="" class=""/>
	</g>
</g>
<g xmlns="http://www.w3.org/2000/svg">
	<g>
		<path d="M481,214.763v174.474c17.422-6.213,31-22.707,31-42.237v-90C512,237.47,498.422,220.976,481,214.763z" fill="#ffffff" data-original="#000000" style="" class=""/>
	</g>
</g>
<g xmlns="http://www.w3.org/2000/svg">
</g>
<g xmlns="http://www.w3.org/2000/svg">
</g>
<g xmlns="http://www.w3.org/2000/svg">
</g>
<g xmlns="http://www.w3.org/2000/svg">
</g>
<g xmlns="http://www.w3.org/2000/svg">
</g>
<g xmlns="http://www.w3.org/2000/svg">
</g>
<g xmlns="http://www.w3.org/2000/svg">
</g>
<g xmlns="http://www.w3.org/2000/svg">
</g>
<g xmlns="http://www.w3.org/2000/svg">
</g>
<g xmlns="http://www.w3.org/2000/svg">
</g>
<g xmlns="http://www.w3.org/2000/svg">
</g>
<g xmlns="http://www.w3.org/2000/svg">
</g>
<g xmlns="http://www.w3.org/2000/svg">
</g>
<g xmlns="http://www.w3.org/2000/svg">
</g>
<g xmlns="http://www.w3.org/2000/svg">
</g>
</g></svg>
