<svg xmlns="http://www.w3.org/2000/svg" width="24" height="24" viewBox="0 0 24 24">
  <g id="Group_11379" data-name="Group 11379" transform="translate(-7175 16750)">
    <g id="home-24px_2_" data-name="home-24px (2)" transform="translate(7175 -16750)">
      <path id="Path_34228" data-name="Path 34228" d="M0,0H24V24H0Z" fill="none"/>
      <path id="Path_34229" data-name="Path 34229" d="M10,19V14h4v5a1,1,0,0,0,1,1h3a1,1,0,0,0,1-1V12h1.7a.5.5,0,0,0,.33-.87L12.67,3.6a1.008,1.008,0,0,0-1.34,0L2.97,11.13A.5.5,0,0,0,3.3,12H5v7a1,1,0,0,0,1,1H9A1,1,0,0,0,10,19Z" fill="#fff"/>
    </g>
  </g>
</svg>
