<svg xmlns="http://www.w3.org/2000/svg" width="24" height="24" viewBox="0 0 24 24">
  <g id="Group_11382" data-name="Group 11382" transform="translate(-7270 16750)">
    <g id="pie_chart-24px" transform="translate(7270 -16750)">
      <path id="Path_34234" data-name="Path 34234" d="M0,0H24V24H0Z" fill="none"/>
      <path id="Path_34235" data-name="Path 34235" d="M11,3.18V20.82a1,1,0,0,1-1.21.98,10.059,10.059,0,0,1,0-19.6A1,1,0,0,1,11,3.18Zm2.03,0V9.99a1,1,0,0,0,1,1h6.79a1,1,0,0,0,.98-1.22A10.045,10.045,0,0,0,14.25,2.2a1,1,0,0,0-1.22.98Zm0,10.83v6.81a1,1,0,0,0,1.22.98,10.055,10.055,0,0,0,7.56-7.58A1.011,1.011,0,0,0,20.83,13H14.04a1.02,1.02,0,0,0-1.01,1.01Z" fill="#fff"/>
    </g>
  </g>
</svg>
